<svg width="357" height="353" viewBox="0 0 357 353" fill="none" xmlns="http://www.w3.org/2000/svg">
<path d="M146.886 0.768829C126.353 4.10216 102.086 13.0355 85.4194 23.7022C75.4194 30.1022 50.886 49.9688 51.8194 50.9022C52.086 51.1688 57.0194 49.4355 62.886 46.9022C84.3527 37.8355 101.953 35.0355 131.019 35.7022C155.553 36.3688 165.153 38.3688 184.219 46.2355C210.486 57.1688 239.286 83.5688 251.553 107.702C265.686 135.702 268.219 168.102 257.953 189.969C256.539 193.062 255.418 195.92 254.9 197.613C254.591 198.623 255.151 199.058 256.008 198.441C257.512 197.361 260.052 195.204 262.886 192.636C275.419 180.635 285.686 163.702 291.686 144.769C294.353 135.969 294.753 132.102 294.753 113.435C294.619 93.4355 294.486 91.4355 290.886 81.4355C283.019 59.0355 265.419 35.7022 247.019 23.1688C236.086 15.8355 219.419 8.10216 205.419 4.10216C195.553 1.16882 189.819 0.502158 174.086 0.102158C163.419 -0.164509 151.153 0.102163 146.886 0.768829Z" fill="white"/>
<path d="M288.086 44.1022C311.019 72.3689 317.553 118.636 303.953 158.369C293.686 188.502 270.486 214.502 241.686 228.102C227.819 234.769 218.353 236.769 202.086 236.769C171.953 236.769 153.553 227.436 143.419 207.036C135.819 191.702 139.019 173.969 150.353 168.769C158.619 165.036 159.153 165.169 158.353 172.502C157.819 178.369 158.219 179.436 162.086 183.836C176.886 200.636 204.086 184.369 198.086 162.236C192.619 141.702 165.686 131.036 144.486 141.036C140.219 143.036 133.819 147.436 129.953 150.902C117.153 162.902 112.219 175.436 112.353 195.436C112.486 225.169 128.753 250.369 156.086 263.436C172.353 271.169 182.353 273.302 203.419 273.169C223.553 273.169 233.286 271.702 249.686 266.102C285.019 254.102 317.819 222.769 331.286 188.236C343.019 158.102 344.486 133.036 335.953 105.836C331.686 92.2355 327.686 84.2355 319.019 71.7022C312.219 61.8355 286.886 36.7689 283.686 36.7689C282.753 36.7689 284.753 40.1022 288.086 44.1022Z" fill="white"/>
<path d="M102.353 51.9689C73.6861 57.4356 50.2194 69.5689 33.9528 87.1689C14.4861 108.236 4.75278 130.502 0.752778 162.769C-0.713888 174.636 0.0861118 200.236 2.08611 201.436C2.61945 201.702 3.41945 196.902 3.95278 190.636C6.35278 158.636 29.5528 119.436 59.5528 96.6356C78.6195 82.1022 98.3528 73.1689 124.086 67.3022C139.819 63.8356 171.953 63.0356 181.953 65.9689C185.019 66.9023 187.953 67.3023 188.353 66.9023C189.686 65.7023 172.753 58.1022 161.153 54.7689C146.353 50.3689 117.686 49.0356 102.353 51.9689Z" fill="white"/>
<path d="M149.553 81.0355C127.153 83.0355 109.42 91.9688 91.2863 110.102C80.2196 121.169 77.553 124.636 72.353 135.569C58.8863 163.302 59.953 194.102 75.4196 224.769C91.953 257.569 118.886 279.569 151.82 287.436C169.02 291.569 171.82 290.369 159.153 284.502C126.62 269.169 104.62 244.902 97.4196 216.236C90.6196 188.502 98.753 158.769 118.353 139.969C129.686 129.036 139.286 124.369 154.753 122.236C201.153 115.702 233.553 164.369 203.553 195.836C195.82 204.102 189.686 206.769 178.086 206.769C169.953 206.769 167.153 206.102 163.02 203.569C155.686 199.036 156.486 203.169 164.22 209.169C179.42 221.036 197.686 222.636 215.553 213.836C231.82 205.702 242.753 191.569 246.886 173.036C254.22 139.969 236.486 106.102 202.886 89.5689C186.62 81.5689 171.153 79.0355 149.553 81.0355Z" fill="white"/>
<path d="M54.8862 124.369C43.8195 135.169 37.0195 144.369 29.8195 157.569C20.8862 174.102 17.9529 185.436 17.1529 205.436C16.6195 220.902 16.8862 224.102 19.9529 235.836C27.5529 265.169 48.2195 295.836 73.2862 314.636C121.953 351.169 184.753 361.702 241.82 342.769C263.686 335.436 288.086 319.302 303.82 301.702C313.686 290.769 314.886 287.169 306.486 293.836C294.353 303.436 269.553 312.769 249.42 315.436C234.886 317.302 202.353 317.036 186.086 314.769C130.22 306.902 82.4862 275.569 61.2862 232.636C51.1529 212.236 47.4195 196.636 47.4195 174.902C47.4195 153.569 53.4195 132.236 62.8862 119.836C68.3529 112.636 64.4862 114.769 54.8862 124.369Z" fill="white"/>
<path d="M354.086 170.235C354.086 175.169 348.62 191.835 343.82 201.169C328.486 231.435 301.686 259.169 274.22 272.769C253.82 283.035 236.486 287.969 213.553 290.369C197.82 291.835 181.153 290.902 173.553 287.969C171.686 287.302 171.286 287.569 171.686 288.902C171.953 289.835 177.286 292.369 183.286 294.369C221.553 307.035 271.153 299.835 307.02 276.369C341.02 254.102 356.753 223.302 356.753 178.902C356.753 171.302 356.22 166.102 355.42 166.102C354.753 166.102 354.086 167.969 354.086 170.235Z" fill="white"/>
</svg>
